<svg xmlns="http://www.w3.org/2000/svg" version="1.1" viewBox="-5.0 -10.0 110.0 135.0">
 <g>
  <path d="m88.711 56.062v-1.957c0-2.8906-2.3477-5.2422-5.2305-5.2422h-1.6328v-23.426h1.7695c0.4375 0 0.79297-0.35547 0.79297-0.79297v-9.7812l2.8789-3.0156c1.0195-1.0664 1.293-2.5781 0.71094-3.9375-0.57812-1.3555-1.8516-2.1953-3.3242-2.1953h-48.926c-0.23438-0.29297-0.48047-0.57812-0.74219-0.85156-2.8203-2.9961-6.8281-4.7188-11.285-4.8477-5.7031-0.16797-11.629 2.2344-16.227 6.5859-8.5 8.0469-9.9883 20.355-3.3242 27.441 2.4336 2.5859 5.7461 4.2188 9.4727 4.7031v10.117h-1.6367c-2.8867 0-5.2305 2.3516-5.2305 5.2422v4.043c0 9.5547 4.0742 18.281 10.703 24.352v12.277c0 0.4375 0.35547 0.79297 0.79297 0.79297h5.1016c0.4375 0 0.79297-0.35547 0.79297-0.79297v-7.5352c2.8008 1.4961 5.8594 2.6016 9.1055 3.2383 2.4297 5.5977 7.9961 9.5273 14.465 9.5273 6.4648 0 12.035-3.9258 14.465-9.5273 6.4062-1.2578 12.227-4.3672 16.871-9.0273h8.2148c7.0039 0 12.695-5.7109 12.695-12.73 0.007813-6.5352-4.8867-11.953-11.273-12.66zm-4.0352-48.766c0.98438 0 1.6094 0.63672 1.8633 1.2344 0.25781 0.59766 0.28516 1.4961-0.39844 2.2148l-3.0977 3.2461c-0.14062 0.14844-0.21875 0.34375-0.21875 0.54687v9.3047h-45.281c2.3477-5.6953 2.1992-11.832-0.67578-16.547zm-31.562 36.844c1.3242 0.77734 2.9648 1.3516 4.707 1.9609 2.0234 0.70703 4.1133 1.4375 5.5078 2.4727 0.11719 0.085937 0.23828 0.18359 0.36328 0.28516h-13.586v-7.6758c0.73438 1.0742 1.7305 2.207 3.0078 2.957zm14.68-0.96094c-1.4805-1.0977-3.5352-1.8164-5.5195-2.5117-1.543-0.53906-2.9961-1.0508-4.0977-1.6953-1.4883-0.875-2.5195-2.5039-3.0742-3.582h19.602v13.469h-2.0625c-0.67969-1.0703-2.7031-4.0859-4.8477-5.6797zm-13.922-9.3789c-2.9531 0-5.3516 2.4102-5.3516 5.3672v9.6914h-27.727v-10.543c3.9258-0.94531 7.7188-3.0195 10.891-6.0195 2.1797-2.0625 3.8945-4.4023 5.1328-6.8633h37.887v8.3672zm-28.375-21.461c1.6484-1.2969 2.5898-3.1875 3.0859-4.543 0.10938-0.29688 0.39844-0.49609 0.71875-0.49609 0.21875 0 0.41797 0.089844 0.56641 0.25 0.14844 0.16016 0.21875 0.36719 0.19922 0.58203-0.13281 1.5352-0.59375 4.3398-2.2305 5.918-1.4141 1.3633-4.2227 2.4297-6.9375 3.457-2.3398 0.88672-4.5508 1.7227-6.125 2.7969-2.3711 1.6172-3.7812 5.3008-4.7148 7.7344-0.11719 0.30469-0.22266 0.58594-0.32812 0.84375-0.16016 0.40625-0.58984 0.61328-1.0078 0.48828l-0.019531-0.007813c-0.35547-0.10547-0.58984-0.43359-0.58984-0.79297 0-0.054687 0.007813-0.11328 0.019531-0.17187 0.042969-0.21094 0.089844-0.44141 0.13672-0.6875 0.46484-2.3594 1.2422-6.3125 3.4766-8.457 2.0703-1.9883 5.5781-3.3438 8.6758-4.5391 2.1641-0.83203 4.0273-1.5508 5.0742-2.375zm-10.262 26.535c0.074219 0.003906 0.14844 0.011719 0.22266 0.011719 0.1875 0.007812 0.37109 0.007812 0.55469 0.007812 1.0625 0 2.1289-0.085937 3.1914-0.26172v10.227h-3.9688zm7.3555 55.102h-3.5156v-10.117c1.1094 0.89453 2.2852 1.7188 3.5156 2.4688zm25.953-6.168c0.43359-0.09375 0.83594-0.26562 1.1992-0.5l4.3203 4.3359c-1.5156 1.293-3.4258 2.1289-5.5195 2.2969zm1.1953-6.7422c-0.35938-0.23438-0.76562-0.40625-1.1992-0.5v-6.1328c2.0938 0.16797 4.0078 1.0078 5.5195 2.2969zm-2.7852-0.5c-0.43359 0.09375-0.83594 0.26562-1.1992 0.5l-4.3203-4.3359c1.5156-1.293 3.4258-2.1289 5.5195-2.2969zm-2.3203 1.6211c-0.23047 0.36328-0.40625 0.76953-0.5 1.2031h-6.1094c0.16797-2.1016 1.0039-4.0195 2.2891-5.5391zm-0.5 2.793c0.09375 0.4375 0.26953 0.84375 0.5 1.207l-4.3203 4.332c-1.2891-1.5195-2.1211-3.4375-2.2891-5.5391zm1.625 2.3281c0.35938 0.23438 0.76563 0.40625 1.1992 0.5v6.1328c-2.0938-0.17188-4.0078-1.0078-5.5195-2.2969zm5.1016-1.1211c0.23438-0.36328 0.40625-0.76953 0.50391-1.207h6.1094c-0.16797 2.1016-1.0039 4.0195-2.2891 5.5391zm0.50391-2.793c-0.09375-0.43359-0.26953-0.83984-0.50391-1.2031l4.3203-4.332c1.2891 1.5195 2.1211 3.4375 2.2891 5.5391zm35.934-3.5352h-8.5469c-0.21484 0-0.41797 0.085937-0.56641 0.23828-4.2266 4.3242-9.5078 7.2852-15.332 8.6133 0.42969-1.4336 0.66406-2.9531 0.66406-4.5273 0-8.7188-7.0742-15.812-15.77-15.812-8.6953 0-15.77 7.0938-15.77 15.812 0 1.5742 0.23438 3.0938 0.66406 4.5312-14.145-3.2305-24.273-15.871-24.273-30.57v-4.043c0-2.0156 1.6367-3.6562 3.6445-3.6562h71.465c2.0117 0 3.6445 1.6406 3.6445 3.6562v2.6914c0 0.42188 0.33203 0.76953 0.75391 0.79297 5.9023 0.30469 10.527 5.1953 10.527 11.129 0.003906 6.1445-4.9805 11.145-11.105 11.145z"/>
  <path d="m87.699 61.484c-0.41797-0.023437-0.77734 0.28125-0.83203 0.69141-0.57422 4.4883-2.082 8.7188-4.4805 12.566-0.15234 0.24219-0.16016 0.55078-0.019531 0.80469 0.14062 0.25391 0.40625 0.41016 0.69531 0.41016h4.2344c3.9805 0 7.2227-3.2461 7.2227-7.2422 0.003907-3.8398-2.9922-7.0195-6.8203-7.2305zm-0.40234 12.883h-2.8398c1.9727-3.4844 3.2773-7.2461 3.8789-11.211 2.6289 0.48828 4.5977 2.8047 4.5977 5.5586 0 3.1172-2.5273 5.6523-5.6367 5.6523z"/>
  <path d="m81.055 55.32h-66.613c-0.4375 0-0.79297 0.35547-0.79297 0.79297s0.35547 0.79297 0.79297 0.79297h66.609c0.4375 0 0.79297-0.35547 0.79297-0.79297 0.003906-0.4375-0.35156-0.79297-0.78906-0.79297z"/>
 </g>
<text x="0.0" y="117.5" font-size="5.0" font-weight="bold" font-family="Arbeit Regular, Helvetica, Arial-Unicode, Arial, Sans-serif" fill="#000000">Created by Amethyst Studio</text><text x="0.0" y="122.5" font-size="5.0" font-weight="bold" font-family="Arbeit Regular, Helvetica, Arial-Unicode, Arial, Sans-serif" fill="#000000">from Noun Project</text></svg>